<svg width="100" height="100" viewBox="0 0 100 100" fill="none" xmlns="http://www.w3.org/2000/svg">
  <!-- Main Shield Background -->
  <path d="M50 10 L85 25 L85 50 C85 70 50 90 50 90 C50 90 15 70 15 50 L15 25 Z" fill="#1a1a1a" stroke="#ffd700" stroke-width="2"/>
  
  <!-- Yellow Border -->
  <path d="M50 12 L83 26 L83 50 C83 69 50 87 50 87 C50 87 17 69 17 50 L17 26 Z" fill="none" stroke="#ffd700" stroke-width="1"/>
  
  <!-- Lightning Bolts - Left -->
  <path d="M25 15 L30 28 L25 26 L28 38" stroke="#ffd700" stroke-width="3" fill="none" stroke-linecap="round" stroke-linejoin="round"/>
  <path d="M20 18 L25 30 L20 28 L23 40" stroke="#ffd700" stroke-width="2" fill="none" stroke-linecap="round"/>
  
  <!-- Lightning Bolts - Right -->
  <path d="M75 15 L70 28 L75 26 L72 38" stroke="#ffd700" stroke-width="3" fill="none" stroke-linecap="round" stroke-linejoin="round"/>
  <path d="M80 18 L75 30 L80 28 L77 40" stroke="#ffd700" stroke-width="2" fill="none" stroke-linecap="round"/>
  
  <!-- Lightning Bolts - Center Top -->
  <path d="M50 8 L45 22 L50 20 L47 32" stroke="#ffd700" stroke-width="2.5" fill="none" stroke-linecap="round"/>
  <path d="M50 8 L55 22 L50 20 L53 32" stroke="#ffd700" stroke-width="2.5" fill="none" stroke-linecap="round"/>
  
  <!-- Basketball -->
  <circle cx="50" cy="35" r="10" fill="url(#basketballGradient)" stroke="#d97706" stroke-width="1.5"/>
  <path d="M40 35 C40 35 45 32 50 35 C55 38 60 35 60 35" stroke="#d97706" stroke-width="1.2" fill="none"/>
  <path d="M50 25 C50 25 47 30 50 35 C53 40 50 45 50 45" stroke="#d97706" stroke-width="1.2" fill="none"/>
  
  <!-- NEW FORCE Text Banner -->
  <path d="M20 65 L80 65 C82 65 83 66 83 68 L83 72 C83 74 82 75 80 75 L20 75 C18 75 17 74 17 72 L17 68 C17 66 18 65 20 65 Z" fill="#0ea5e9"/>
  
  <!-- Basketball Hoop -->
  <ellipse cx="50" cy="78" rx="8" ry="2" fill="#f97316"/>
  <path d="M42 78 L42 82 M46 78 L46 82 M50 78 L50 82 M54 78 L54 82 M58 78 L58 82" stroke="#f97316" stroke-width="0.8"/>
  
  <!-- Text NEW FORCE -->
  <text x="35" y="71" fill="white" font-family="Arial Black, Arial" font-size="6" font-weight="900">NEW</text>
  <text x="52" y="71" fill="white" font-family="Arial Black, Arial" font-size="6" font-weight="900">FORCE</text>
  
  <!-- Basketball Club smaller text -->
  <text x="50" y="86" text-anchor="middle" fill="#ffd700" font-family="Arial" font-size="3" font-weight="bold">BASKETBALL CLUB</text>
  
  <!-- Gradients -->
  <defs>
    <linearGradient id="basketballGradient" x1="0%" y1="0%" x2="100%" y2="100%">
      <stop offset="0%" style="stop-color:#fb923c;stop-opacity:1" />
      <stop offset="100%" style="stop-color:#ea580c;stop-opacity:1" />
    </linearGradient>
  </defs>
</svg> 